<?xml version="1.0" encoding="UTF-8" standalone="no"?><!DOCTYPE svg PUBLIC "-//W3C//DTD SVG 1.1//EN" "http://www.w3.org/Graphics/SVG/1.1/DTD/svg11.dtd"><svg width="100%" height="100%" viewBox="0 0 413 292" version="1.1" xmlns="http://www.w3.org/2000/svg" xmlns:xlink="http://www.w3.org/1999/xlink" xml:space="preserve" xmlns:serif="http://www.serif.com/" style="fill-rule:evenodd;clip-rule:evenodd;stroke-miterlimit:10;"><path d="M33.605,16.382c-1.959,0 -3.822,0.096 -6.307,1.386c-4.491,2.341 -8.839,4.204 -13.091,10.129c-3.01,4.157 -6.975,11.944 -1.863,20.306c3.344,5.542 10.463,10.559 18.538,13.712c1.672,0.669 2.341,0.239 3.535,0c2.819,-4.013 4.253,-6.02 7.072,-10.033c-4.11,-1.386 -7.932,-1.673 -12.184,-5.734c-4.157,-3.918 -6.498,-8.266 -0.43,-13.426c6.928,-5.781 10.846,-4.682 12.614,-6.306c-3.154,-4.014 -4.731,-6.02 -7.884,-10.034Zm11.849,-0.191c1.768,18.108 1.577,36.264 0,45.533c6.689,1.003 18.347,-0.191 26.804,0c1.003,-3.966 3.965,-9.842 4.73,-12.996c-5.877,0.574 -10.655,1.386 -15.194,0.574c0,-12.853 0,-19.303 0,-32.108c-6.498,-0.43 -9.794,-0.621 -16.34,-1.003Zm35.691,0.573c1.958,15.958 0.382,26.04 -0.956,40.039c6.068,2.15 10.225,3.726 16.913,5.112c4.253,-2.58 6.642,-3.822 11.037,-5.112c0.287,1.337 0.526,2.197 1.004,3.918c6.068,-0.144 9.125,-0.239 15.193,-0.383c-0.812,-13.617 -1.577,-25.418 0.191,-42.379c-0.334,-0.621 -0.478,-0.956 -0.478,-0.956c-3.869,-0.43 -7.405,-0.621 -12.135,-0.047c-1.195,12.087 -1.768,18.108 -2.962,30.195c-0.144,1.243 -0.669,1.864 -1.386,2.533c-3.153,-0.191 -8.075,1.576 -10.655,-1.147c-0.191,-13.234 0.191,-19.159 -0.764,-31.964c-5.16,-0.382 -9.078,-0.382 -15.002,0.191Zm49.307,-0.573c-0.335,17.391 -0.478,26.135 -0.717,43.287l1.195,1.768c5.112,-0.382 8.409,-0.287 14.094,0.287c9.03,0.955 17.153,1.576 22.074,-6.689c1.72,-2.819 2.962,-6.116 -0.765,-9.317c-1.72,-1.385 -3.344,-3.297 -4.539,-5.686c1.673,-2.15 2.676,-3.344 4.731,-5.733c2.388,-2.771 2.15,-5.877 -1.004,-9.269c-1.624,-1.72 -2.484,-2.58 -4.109,-4.3c-2.58,-2.771 -6.546,-4.921 -12.04,-4.539c-6.498,0.382 -12.231,1.338 -18.92,0.191Zm14.381,10.225c-0.908,2.389 -1.481,4.539 -0.382,7.501c1.338,0.191 2.532,0.287 4.539,0c3.822,-0.574 5.112,-5.399 0.095,-6.976c-1.72,-0.239 -2.58,-0.334 -4.252,-0.525Zm-0.382,16.961c-0.812,1.816 -0.908,4.443 -0.096,7.215c2.819,0.477 4.444,-0.908 6.403,-1.004c1.576,-0.048 2.723,-1.529 1.003,-3.344c-1.625,-1.673 -3.775,-2.676 -7.31,-2.867Zm30.435,7.597c-0.239,-0.335 -0.335,-0.526 -0.574,-0.86c1.959,-4.444 2.963,-6.641 5.017,-10.846c8.505,-0.096 12.805,-0.048 21.405,0.096c0.286,0.525 0.286,0.525 0.525,0.86c-0.764,3.822 -1.146,5.733 -1.911,9.555c0,0 -0.382,1.004 -0.955,1.004c-7.932,0.095 -16.962,0.382 -23.507,0.191Zm28.81,10.463c1.577,-12.135 7.406,-29.001 10.129,-44.768c3.87,0.048 5.781,0.048 9.603,0.095c2.724,7.406 4.062,11.085 6.785,18.443c0.478,1.863 1.099,0.573 1.577,0c2.58,-7.501 3.87,-11.228 6.402,-18.729c2.819,-0.143 4.204,-0.191 7.023,-0.287c1.768,-0.095 2.58,0.86 2.724,1.672c2.484,11.802 10.177,28.094 13.903,43.287c0.144,0.431 -0.478,0.717 -0.955,0.67c-2.771,-0.096 -10.273,0.191 -14.429,-0.383c-1.434,-3.488 -1.864,-13.521 -3.727,-15.91c-2.054,2.867 -4.252,11.18 -6.976,16.197c-2.819,0 -4.204,0 -7.023,0c-2.676,0 -2.532,-3.297 -3.058,-4.539c-1.672,-3.822 -2.437,-7.883 -4.539,-10.941c-1.768,5.16 -2.341,9.842 -3.249,15.193c-5.208,0.191 -8.552,0.812 -14.19,0Zm63.306,-0.191c2.724,-11.658 10.75,-27.329 17.248,-44.959c6.02,0.048 9.03,0.048 15.051,0.095c7.405,17.726 12.47,30.769 16.674,44.96c-6.02,0.191 -8.982,0.047 -14.955,0.095c-1.528,-1.863 -1.911,-4.156 -2.675,-6.211c-5.59,0.573 -9.078,0.048 -15.098,0.096c-0.86,2.532 -1.29,3.774 -2.15,6.306c-5.638,-0.143 -8.457,-0.239 -14.095,-0.382Zm20.784,-15.91c-0.096,-3.918 2.293,-5.877 3.774,-9.556c2.342,2.485 3.058,4.73 4.109,8.314c0.239,0.716 0.096,1.576 -0.764,1.672c-2.15,0.191 -4.73,-0.573 -7.119,-0.43Zm25.561,-16.149c1.243,-6.211 2.437,-8.457 4.109,-13.187c7.884,1.577 20.832,0.956 34.496,1.051c-0.477,4.635 -2.054,8.982 -3.201,13.521c-2.293,-0.095 -5.064,-1.098 -8.409,-1.098c-1.385,12.422 -0.573,26.325 0.191,32.346c-6.736,0 -10.129,0 -16.865,0c1.672,-12.232 1.672,-20.975 1.576,-32.729c-2.771,-1.385 -8.265,0.574 -11.897,0.096Zm77.64,0.812c0.096,-4.252 -1.624,-8.361 -2.723,-13.903c-8.314,1.098 -22.982,0.382 -31.391,0.955c-0.477,17.774 -0.191,26.756 0,44.769c12.566,0 18.825,0 31.391,0c0.955,-2.915 1.433,-4.348 2.341,-7.263c0.621,-1.481 0.621,-2.484 0.191,-3.87c-6.976,0.478 -12.327,0.908 -20.401,0.096c-0.669,-2.15 -0.765,-3.87 -0.096,-5.829c7.167,0 10.798,0 17.965,0c1.481,-4.205 -1.864,-7.167 -2.389,-11.706c-4.205,0.86 -9.747,0.669 -15.767,0.095c-0.143,-1.098 -0.335,-1.719 -0.669,-2.962c0,-1.29 1.051,-1.959 1.864,-1.959c7.978,0 12.804,0.669 19.684,1.577" style="fill:#1a3882;"/><path d="M138.718,22.498c-0.239,6.163 -0.335,9.221 -0.574,15.384c3.87,0.192 5.781,0.478 9.651,0.478c3.154,0 5.113,0 6.976,-1.959c1.242,-1.29 2.245,-1.624 3.153,-3.153c1.29,-2.055 1.004,-3.249 -0.477,-5.638c-0.813,-1.338 -1.482,-1.816 -2.676,-2.962c-2.055,-1.959 -4.109,-2.532 -6.211,-2.485c-3.918,0.144 -5.877,0.191 -9.842,0.335Zm-0.192,17.152c3.632,-0.095 5.734,-0.095 8.887,0.382c3.392,0.526 6.211,1.195 8.839,4.157c0.86,0.908 1.099,1.577 1.577,2.724c1.003,2.197 1.099,4.061 -1.195,5.637c-1.146,0.813 -1.863,1.195 -3.201,1.577c-1.672,0.478 -3.488,0.908 -6.02,0.717c-3.631,-0.287 -5.447,-0.43 -9.078,-0.717c-0.095,-5.924 -0.382,-8.696 0.191,-14.477Zm-1.958,-18.06c0,13.76 0.047,20.592 0.095,34.305c5.495,0.048 8.266,0.096 13.808,0.143c2.867,0 4.634,-0.525 6.976,-1.815c3.535,-1.912 3.153,-5.399 1.576,-8.17c-1.768,-3.106 -4.109,-4.731 -6.88,-6.976c2.962,-1.099 4.635,-2.294 6.594,-4.682c2.341,-2.771 1.863,-4.826 0.286,-7.167c-0.955,-1.481 -1.72,-2.15 -3.535,-3.775c-1.625,-1.433 -4.205,-2.341 -7.406,-2.532c-4.443,-0.286 -7.119,0 -11.514,0.669Zm-46.154,0.096c-0.813,0.095 -1.195,0.143 -1.959,0.191c0.573,9.078 0.191,16.388 -0.43,27.425c-0.096,2.197 0.525,3.774 2.198,4.347c1.911,0.669 2.771,1.195 4.729,1.768c1.386,0.382 2.15,0.239 3.536,0c5.686,-0.955 8.409,-1.385 14.19,-2.341c1.768,-0.334 2.771,0 2.963,0.765c0.429,1.672 1.576,0.907 1.576,-0.192c0,-10.845 -0.191,-19.159 1.195,-31.342c0.047,-0.526 -1.051,-0.908 -1.195,-0.43c-1.576,6.545 -1.385,17.2 -1.385,30.005c-7.263,0.477 -10.034,1.385 -16.675,2.436c-1.194,0.239 -2.867,0.574 -4.921,-0.382c-2.437,-1.147 -4.874,-2.341 -4.826,-3.536c0.574,-11.323 1.195,-20.401 1.004,-28.714Zm-37.268,1.194c0.86,0 1.29,0 2.15,0c-0.047,12.709 -0.095,19.064 -0.191,31.725c5.734,0.621 9.078,0.43 14.429,0.239c-0.477,0.621 -0.716,0.908 -1.194,1.577c-6.068,-0.192 -9.126,-0.239 -15.194,-0.383c0,-13.282 0,-19.876 0,-33.158Zm-21.309,0.191c-1.481,0.382 -2.389,0.191 -3.726,1.004c-4.348,2.532 -5.829,4.443 -8.983,7.979c-3.727,4.204 -3.201,10.272 -0.478,13.903c4.731,6.307 8.075,7.501 12.805,9.842c0.334,-0.477 0.478,-0.716 0.764,-1.194c-5.494,-1.147 -8.934,-4.921 -11.227,-8.075c-3.01,-4.204 -4.014,-8.265 -0.669,-13.282c3.153,-4.73 6.784,-6.068 11.514,-10.177Zm351.792,0.096c-0.095,-0.526 -0.143,-0.765 -0.191,-1.29c-8.313,-0.048 -12.422,-0.096 -20.736,-0.191c0.191,14.381 -0.191,21.5 0.526,35.881c7.883,0.621 13.282,0.191 20.306,-0.095c-0.191,-0.574 -0.239,-0.86 -0.43,-1.434c-7.167,0.287 -10.703,0.191 -18.108,0.048c-0.574,-6.498 -0.287,-9.747 -0.287,-16.149c6.88,0 10.32,0 17.248,0c-0.048,-0.526 -0.048,-0.765 -0.096,-1.29c-6.784,0 -10.176,0 -16.961,0c-0.908,-6.211 -0.717,-10.416 -0.621,-15.576c7.74,0.048 11.61,0.048 19.35,0.096Zm-52.269,0.812c-3.631,-0.096 -5.447,-0.143 -9.078,-0.239c-0.621,0 -1.147,-1.481 -0.478,-1.577c2.055,-0.191 3.058,-0.334 5.112,-0.573c7.215,0.143 10.846,0.191 18.061,0.287c-0.717,0.908 -1.052,1.338 -1.768,2.198c-3.727,-0.048 -5.59,-0.096 -9.269,-0.096c-0.096,12.9 -0.143,19.302 -0.191,32.25c-0.908,0 -1.386,0 -2.294,0c-0.047,-12.948 -0.047,-19.35 -0.095,-32.25Zm-51.362,24.749c4.252,-10.654 6.785,-16.961 10.75,-25.466c0.908,0.048 1.386,0.096 2.246,0.096c4.3,10.224 6.402,15.337 10.654,25.561c-8.552,-0.525 -17.534,0.287 -23.65,-0.191Zm-4.635,6.307c-0.716,1.624 0.239,1.338 0.861,0.334c1.194,-2.102 2.006,-3.296 3.01,-5.255c5.972,0.573 13.807,-0.048 23.029,-0.096c1.29,0.096 1.911,0.191 2.389,0.956c0.812,1.72 1.194,2.532 1.959,4.252c0.621,1.242 1.576,0.908 1.194,0c-5.208,-12.709 -7.836,-19.064 -12.996,-31.773c-0.478,-1.099 -0.907,-1.242 -2.293,-1.385c-1.099,-0.096 -1.672,-0.143 -2.771,-0.287c-6.498,13.713 -8.648,19.924 -14.382,33.254Zm-65.169,1.29c0.669,0.096 1.003,0.143 1.672,0.287c3.106,-11.754 4.682,-17.631 7.788,-29.384c4.73,10.559 7.692,15.958 11.658,26.995c0.43,1.194 1.099,0.716 1.385,0c3.249,-9.795 4.874,-14.716 8.171,-24.558c0.286,-0.908 0.573,-1.625 1.194,-2.15c4.061,11.514 6.116,17.295 10.225,28.81c0.716,0 1.051,0.048 1.767,0.096c-3.726,-8.41 -7.31,-19.59 -12.231,-32.681c-4.013,11.037 -6.02,16.531 -10.033,27.52c-4.922,-11.036 -7.406,-16.531 -12.327,-27.615c-3.679,13.091 -5.542,19.589 -9.269,32.68Zm-27.712,-12.231c-0.86,0.382 -1.051,1.242 -0.191,1.099c5.16,-0.191 8.362,0.477 12.9,-0.43c-1.051,-0.765 -7.071,-0.956 -12.709,-0.669" style="fill:#f7c200;"/><path d="M202.142,79.443c44.504,0 80.8,36.297 80.8,80.8c0,44.503 -36.296,80.8 -80.8,80.8c-44.503,0 -80.799,-36.297 -80.799,-80.8c0,-44.503 36.296,-80.8 80.799,-80.8Zm-21.507,2.672l5.733,-8.339l7.47,5.907l5.385,-6.428l4.516,5.906l8.686,-6.427l3.301,7.643l9.033,-5.211l3.127,8.512l10.249,-2.606l0.695,6.949l8.686,-2.779l1.563,8.859l7.991,-2.258l-0.347,8.859l9.033,-1.216l-0.521,9.728l10.249,-0.521l-3.301,7.47l6.949,2.606l-2.258,6.948l9.207,2.432l-5.386,6.254l8.86,3.822l-6.254,5.906l7.817,4.169l-6.253,3.996l4.69,4.516l-6.08,4.517l5.906,5.733l-5.906,4.516l5.385,6.254l-6.254,2.085l4.517,6.601l-7.47,2.084l3.822,7.123l-6.949,0.521l2.432,8.512l-8.859,1.563l0.521,9.207l-7.122,0.695l0,8.512l-7.123,0l-1.563,8.512l-9.207,-3.648l-0.174,10.249l-8.512,-3.648l-3.127,7.991l-9.207,-5.732l-4.516,7.991l-7.123,-5.038l-6.601,6.949l-6.948,-5.386l-7.991,5.038l-5.559,-6.254l-7.123,3.822l-4.864,-7.296l-9.728,2.432l0.695,-7.991l-10.77,2.085l0.173,-8.512l-7.991,3.127l0,-9.902l-10.422,-1.043l3.127,-6.253l-8.86,-1.39l2.779,-7.817l-7.991,-0.869l3.475,-7.47l-7.817,-2.084l4.864,-6.775l-8.165,-1.216l5.038,-5.038l-6.254,-3.301l5.211,-5.906l-6.253,-3.822l6.08,-3.821l-7.296,-5.212l7.817,-4.864l-5.907,-6.08l6.254,-1.911l-3.474,-5.906l4.69,-1.39l-3.3,-6.427l6.254,-2.085l-1.738,-8.686l6.775,-0.347l-2.606,-9.207l8.86,-0.174l0.347,-9.901l7.296,1.389l0.869,-8.165l8.165,0.696l0.868,-7.818l7.644,2.78l1.389,-8.165l8.165,3.301l4.343,-7.296" style="fill:#d9261c;"/><path d="M202.436,79.748c44.504,0 80.8,36.296 80.8,80.799c0,44.504 -36.296,80.8 -80.8,80.8c-44.503,0 -80.799,-36.296 -80.799,-80.8c0,-44.503 36.296,-80.799 80.799,-80.799" style="fill:#fff;"/><path d="M280.64,160.547c0,42.977 -35.199,78.176 -78.232,78.176c-42.977,0 -78.175,-35.199 -78.175,-78.176c0,-42.977 35.198,-78.175 78.175,-78.175c43.033,0 78.232,35.198 78.232,78.175Zm-3.75,0c0,25.35 -12.814,47.902 -32.344,61.332c-3.134,-5.652 -5.652,-7.89 -7.107,-14.326c2.91,-1.007 4.309,-1.287 6.995,-2.798c1.287,-0.671 2.462,-1.846 2.014,-3.917c-0.391,-1.567 0.224,-3.469 1.12,-4.589c1.063,-1.287 1.51,-2.462 0.951,-3.917c-0.448,-1.119 -0.112,-2.686 1.007,-3.245c2.798,-1.399 1.007,-4.141 2.798,-6.492c1.511,-1.958 3.358,-4.253 1.287,-6.435c1.455,-6.211 2.183,-9.289 3.638,-15.501c-0.448,-0.168 -0.672,-0.279 -1.12,-0.447c-1.455,6.099 -2.238,9.121 -3.693,15.724c-2.406,0.784 -3.358,2.071 -5.092,4.365c-3.022,4.085 -6.939,6.435 -12.367,7.163c0.112,-3.246 0.559,-9.737 2.35,-27.364l-0.616,-0.112c-1.119,8.338 -1.622,12.479 -2.742,20.761c-4.085,3.805 -6.099,5.708 -10.184,9.457c-6.212,-8.73 -10.633,-14.886 -17.348,-20.09c1.903,-5.54 2.798,-8.282 4.421,-13.374c-2.294,0.112 -2.406,5.652 -4.645,7.163c-0.895,0.615 -1.287,1.735 -1.343,3.246c-0.111,1.902 -0.167,2.909 -0.223,4.812c-0.168,2.854 -3.19,3.078 -3.694,0.616c-0.559,-2.519 -0.839,-3.75 -1.399,-6.156c-6.267,0.28 -8.897,-4.253 -7.162,-8.618c2.518,0.896 9.121,1.623 8.393,-0.839c-3.189,0.112 -7.834,0.336 -6.771,-1.287c0.784,-0.784 1.287,-1.231 2.295,-2.183c2.07,0.616 3.861,0.448 6.491,0.728c0.783,2.63 4.029,0.895 5.54,-1.847c-3.805,0 -6.491,0.112 -10.296,0.336c-0.224,-1.175 -0.224,-2.183 0.335,-3.358c-0.839,0.168 -1.231,0.28 -2.07,0.448c-1.511,0.727 -1.847,-0.448 -1.399,-2.07c0.727,-2.519 0.447,-4.757 0.951,-7.611c0.392,-2.574 2.686,-2.294 3.693,-0.671c2.071,3.189 6.883,2.965 11.528,0.223c1.343,-0.839 2.518,-0.056 3.134,0.896c1.063,1.735 2.406,3.693 0.895,5.876c-1.231,1.846 -1.399,3.917 -0.336,6.155c4.533,9.345 12.927,1.399 7.611,-9.009c13.878,-3.694 21.712,-5.317 33.296,-13.878c1.958,-1.455 4.756,-4.533 -2.351,-3.694c-11.751,1.399 -18.69,2.351 -30.945,6.268c-21.209,6.771 -33.912,5.987 -56.127,3.637c5.595,-1.902 8.337,-2.854 13.877,-4.812c21.936,0.895 34.639,-2.071 53.33,-6.939c-5.988,0.168 -8.954,0.28 -14.997,0.503c-3.302,-15.556 -5.149,-24.286 -9.793,-38.276c38.108,3.134 68.214,35.31 68.214,74.146Zm-138.947,36.989c-6.379,-10.912 -10.017,-23.558 -10.017,-36.989c0,-33.967 23.112,-62.842 54.449,-71.628c-2.127,14.718 -3.358,23.615 -2.91,39.452c-14.549,2.742 -21.488,3.637 -34.527,7.498c-5.988,1.735 -6.771,3.917 -1.735,5.204c11.08,2.742 20.313,2.519 33.016,3.19c0.168,1.511 0.28,2.239 0.448,3.693c-9.01,5.932 1.847,19.642 5.764,5.429c2.126,2.686 3.022,5.428 2.35,9.121c-0.336,1.735 -1.958,4.085 -4.645,2.574c-1.622,-0.951 -3.917,-1.623 -5.987,0c-2.462,1.903 -3.246,2.742 -5.988,5.316c-3.189,2.854 -6.939,2.407 -11.08,6.659c-7.89,8.115 -11.751,12.535 -19.138,20.481Zm39.172,-47.733c-2.519,2.35 -2.742,4.981 -1.903,6.715c0.616,1.399 2.294,1.959 3.302,0.951c1.399,-1.398 1.846,-2.909 2.35,-4.868c-1.287,-0.839 -2.35,-2.071 -3.749,-2.798Zm12.982,-6.323c-1.455,-0.952 -1.902,-2.127 -3.581,-2.351c-3.47,-0.447 -5.484,1.847 -3.693,5.093c0.839,1.623 1.454,2.518 3.077,3.245c1.287,0.56 2.071,0.672 2.91,-1.287c0.784,-1.846 -0.783,-3.917 1.287,-4.7Zm26.413,5.54c1.623,0 2.798,-1.959 3.917,-3.582c1.623,1.623 1.623,3.358 1.399,5.652c-0.28,2.798 -3.805,4.365 -4.588,2.686c-0.784,-1.678 -0.84,-3.134 -0.728,-4.756Zm-23.783,1.007c-0.559,0.839 -1.511,1.399 -2.406,1.399c-0.895,0 0,-1.175 0.448,-1.847c0.783,-1.175 1.175,-1.623 2.07,-1.623c0.896,0 0.392,1.399 -0.112,2.071Zm53.33,9.121c0,0.672 -0.504,1.175 -1.12,1.175c-0.671,0 -1.175,-0.503 -1.175,-1.175c0,-0.615 0.504,-1.119 1.175,-1.119c0.616,0 1.12,0.504 1.12,1.119Zm6.491,-0.112c0,0.672 -0.504,1.176 -1.175,1.176c-0.616,0 -1.119,-0.504 -1.119,-1.176c0,-0.615 0.503,-1.175 1.119,-1.175c0.671,0 1.175,0.56 1.175,1.175Zm-2.07,4.645c0,0.448 -0.392,0.783 -0.84,0.783c-0.448,0 -0.783,-0.335 -0.783,-0.783c0,-0.448 0.335,-0.839 0.783,-0.839c0.448,0 0.84,0.391 0.84,0.839Zm-4.141,-0.224c0,0.392 -0.392,0.784 -0.84,0.784c-0.448,0 -0.783,-0.392 -0.783,-0.784c0,-0.447 0.335,-0.839 0.783,-0.839c0.448,0 0.84,0.392 0.84,0.839Zm-4.645,-0.839c0,0.392 -0.336,0.727 -0.672,0.727c-0.391,0 -0.727,-0.335 -0.727,-0.727c0,-0.392 0.336,-0.672 0.727,-0.672c0.336,0 0.672,0.28 0.672,0.672Zm-0.839,5.204c0,0.448 -0.336,0.84 -0.784,0.84c-0.448,0 -0.784,-0.392 -0.784,-0.84c0,-0.448 0.336,-0.783 0.784,-0.783c0.448,0 0.784,0.335 0.784,0.783Zm5.316,0.616c0,0.559 -0.448,1.007 -1.008,1.007c-0.615,0 -1.063,-0.448 -1.063,-1.007c0,-0.616 0.448,-1.064 1.063,-1.064c0.56,0 1.008,0.448 1.008,1.064Zm2.909,2.406c0,0.392 -0.391,0.783 -0.783,0.783c-0.448,0 -0.839,-0.391 -0.839,-0.783c0,-0.448 0.391,-0.84 0.839,-0.84c0.392,0 0.783,0.392 0.783,0.84Zm-6.099,0.559c0,0.672 -0.56,1.176 -1.175,1.176c-0.616,0 -1.119,-0.504 -1.119,-1.176c0,-0.615 0.503,-1.119 1.119,-1.119c0.615,0 1.175,0.504 1.175,1.119Zm3.19,2.295c0,0.503 -0.392,0.951 -0.896,0.951c-0.503,0 -0.951,-0.448 -0.951,-0.951c0,-0.504 0.448,-0.895 0.951,-0.895c0.504,0 0.896,0.391 0.896,0.895Zm-4.141,1.735c0,0.615 -0.448,1.063 -1.008,1.063c-0.559,0 -1.063,-0.448 -1.063,-1.063c0,-0.56 0.504,-1.008 1.063,-1.008c0.56,0 1.008,0.448 1.008,1.008Zm3.581,2.406c0,0.559 -0.392,0.951 -0.895,0.951c-0.56,0 -0.952,-0.392 -0.952,-0.951c0,-0.504 0.392,-0.896 0.952,-0.896c0.503,0 0.895,0.392 0.895,0.896Zm-3.469,2.91c0,0.391 -0.28,0.671 -0.672,0.671c-0.392,0 -0.672,-0.28 -0.672,-0.671c0,-0.392 0.28,-0.672 0.672,-0.672c0.392,0 0.672,0.28 0.672,0.672Zm-25.07,20.313c-0.336,5.428 0,9.121 0.615,14.773c0.224,2.463 2.071,2.966 3.582,0.616c1.231,-1.959 1.734,-3.022 3.078,-4.869c1.063,-1.399 1.846,-3.413 4.532,-3.693c5.764,-0.56 10.297,-2.294 14.549,-3.917c1.791,-0.672 1.959,-2.183 1.511,-4.141c-0.503,-2.015 -1.511,-2.798 -2.574,-4.645c-0.839,-1.567 0.224,-3.022 1.287,-3.693c4.981,-3.134 6.715,-7.387 9.681,-11.975c2.015,-3.078 -1.79,-2.519 -2.63,-1.847c-1.846,1.455 -2.63,2.798 -4.029,4.701c-0.951,1.287 -2.35,2.014 -3.917,3.357c-3.973,1.399 -5.932,2.071 -9.849,3.469c-0.447,0.168 -0.895,-0.951 -0.447,-1.175c0.615,-0.279 1.398,0 1.51,-0.671c0.168,-1.623 0.28,-2.462 0.448,-4.029c0.056,-0.672 -1.007,-1.175 -1.511,-0.728c-2.798,2.63 -4.141,3.973 -6.939,6.603c-1.119,1.064 -1.511,1.735 -2.406,3.022c-2.574,3.526 -3.861,5.316 -6.491,8.842" style="fill:#1a3882;"/><path d="M202.249,79.216c44.695,0 81.149,36.454 81.149,81.149c0,44.695 -36.454,81.149 -81.149,81.149c-44.695,0 -81.148,-36.454 -81.148,-81.149c0,-44.695 36.453,-81.149 81.148,-81.149Z" style="fill:none;stroke:#1f1a17;stroke-width:0.16px;"/><path d="M336.279,218.995c-0.619,1.945 -0.972,2.917 -1.591,4.862c1.635,0.088 3.049,-0.398 4.375,-0.177c0.354,4.066 0.133,7.69 -0.309,12.419c2.431,-0.044 3.624,-0.044 6.055,-0.088c-0.309,-4.508 -0.354,-7.027 -0.044,-11.977c1.281,0.088 1.945,0.132 3.27,0.221c0.177,-1.901 0.929,-3.669 1.017,-4.95c-4.331,0 -8.663,0.132 -12.773,-0.31Zm-9.193,-0.044c2.21,0.354 3.315,0.574 5.525,0.928c-0.752,0.84 -1.105,1.282 -1.857,2.122c-0.972,1.723 -1.149,3.049 -0.486,4.198c0.53,0.928 0.84,1.415 1.547,2.431c1.193,1.901 0.928,3.845 -0.044,5.525c-0.575,1.06 -1.149,1.856 -2.254,2.652c-2.21,-0.442 -3.403,-0.663 -5.348,-1.459c0.398,-0.619 0.84,-1.105 1.37,-1.724c1.193,-1.723 0.928,-3.668 -0.133,-4.906c-0.53,-0.751 -0.839,-1.149 -1.37,-1.9c-1.06,-1.635 -0.53,-3.271 0.045,-4.331c0.972,-1.636 1.635,-2.52 3.005,-3.536Zm-35.181,18.121c2.431,-1.238 3.801,-1.547 6.276,-2.475c0.088,1.635 0.398,2.475 0.707,4.154c-2.873,1.238 -4.154,1.68 -6.895,3.05c-0.044,-1.857 -0.044,-2.829 -0.088,-4.729Zm24.441,0.839c1.9,0.31 4.597,-0.795 5.967,-1.016c-1.415,-3.845 -1.68,-12.95 -2.387,-16.53c-2.122,0.31 -3.492,0.398 -5.79,1.017c1.282,6.364 1.591,10.298 2.21,16.529Zm48.219,-18.651c4.597,-0.132 6.895,-0.221 11.536,-0.353c0.663,1.9 0.928,3.005 1.105,5.082c-2.343,-0.353 -5.348,-0.574 -7.956,-0.397c0.044,0.707 0.044,1.06 0.044,1.812c2.387,0 3.58,0 5.967,0.044c0.442,1.503 1.326,2.873 1.061,4.287c-2.741,0 -4.155,0 -6.895,0c-0.221,0.663 -0.265,1.37 -0.088,2.21c3.182,0.044 4.729,0.221 7.822,-0.044c0.177,1.016 -0.751,2.652 -1.016,4.11c-4.641,0.044 -6.939,0.044 -11.536,0.088c-0.044,-6.762 -0.044,-10.121 -0.044,-16.839Zm-14.055,0c4.597,-0.132 6.939,-0.221 11.536,-0.353c0.707,1.9 0.928,3.005 1.105,5.082c-2.343,-0.353 -5.348,-0.574 -7.956,-0.397c0.044,0.707 0.044,1.06 0.044,1.812c2.387,0 3.581,0 5.967,0.044c0.442,1.503 1.326,2.873 1.061,4.287c-2.74,0 -4.11,0 -6.895,0c-0.221,0.663 -0.265,1.37 -0.088,2.21c3.182,0.044 4.773,0.221 7.823,-0.044c0.177,1.016 -0.752,2.652 -1.017,4.11c-4.596,0.044 -6.939,0.044 -11.535,0.088c-0.045,-6.762 -0.045,-10.121 -0.045,-16.839Zm-53.036,6.762c4.331,-1.546 6.541,-2.298 10.872,-3.845c1.238,1.591 1.812,2.608 2.608,4.508c-2.342,0.354 -5.26,1.105 -7.69,2.033c0.221,0.663 0.353,1.017 0.618,1.724c2.254,-0.751 3.404,-1.105 5.702,-1.812c0.84,1.326 2.121,2.343 2.298,3.757c-2.608,0.84 -3.933,1.282 -6.541,2.121c0,0.707 0.133,1.37 0.575,2.166c3.049,-0.928 4.596,-1.282 7.425,-2.475c0.486,0.928 0.088,2.784 0.309,4.243c-4.376,1.458 -6.585,2.166 -11.005,3.58c-2.077,-6.409 -3.094,-9.591 -5.171,-16Zm-23.999,11.182c3.977,-2.342 5.966,-3.491 9.944,-5.834c1.503,1.282 2.254,2.21 3.403,3.934c-2.209,0.795 -4.95,2.077 -7.16,3.447c0.354,0.619 0.575,0.928 0.929,1.547c2.121,-1.105 3.138,-1.679 5.259,-2.829c1.105,1.15 2.519,1.901 2.961,3.271c-2.387,1.326 -3.624,1.989 -6.011,3.315c0.133,0.707 0.398,1.326 0.973,1.989c2.828,-1.503 4.243,-2.122 6.806,-3.801c0.663,0.795 0.663,2.696 1.105,4.11c-4.022,2.21 -6.055,3.359 -10.077,5.569c-3.271,-5.878 -4.906,-8.84 -8.132,-14.718Zm-10.431,13.171c-0.884,-1.945 -1.326,-2.74 -1.591,-4.862c3.536,-1.944 6.364,-4.419 10.298,-7.513c0.796,1.989 1.149,3.005 2.033,4.906c-1.149,0.53 -1.856,0.884 -2.652,1.635c1.989,3.315 4.332,6.541 7.249,9.547c-1.945,1.502 -2.917,2.254 -4.818,3.756c-2.74,-3.933 -3.845,-6.673 -7.337,-10.253c-1.281,1.149 -1.9,1.679 -3.182,2.784Zm-3.27,10.165c1.149,-0.662 1.635,-1.016 2.43,-1.856c-0.795,-0.707 -1.9,-1.768 -3.491,-1.945c0.177,1.459 0.442,2.564 1.061,3.801Zm-2.387,9.282c1.635,-1.238 2.475,-1.812 4.11,-3.05c0,-0.795 -0.442,-1.414 -0.663,-2.21c0.884,-1.193 2.829,-2.165 4.42,-3.668c0.84,0.486 1.414,0.928 2.298,1.105c1.636,-1.238 2.52,-1.945 4.243,-3.359c-5.701,-3.801 -9.104,-5.878 -15.248,-9.458c-1.768,1.414 -2.652,2.121 -4.419,3.491c2.077,6.895 3.845,14.143 5.259,17.149Zm-21.789,9.635c-1.061,-6.851 -1.503,-10.121 -2.829,-16.928c1.282,-0.486 1.945,-0.751 3.271,-1.326c2.077,2.343 3.138,3.492 5.524,5.834c-0.088,-3.093 -0.088,-4.773 -0.574,-8.044c1.149,-0.574 1.724,-0.839 2.917,-1.414c4.729,5.436 11.138,12.066 11.845,13.569c-1.768,0.972 -3.183,1.635 -5.481,2.077c-1.016,-1.414 -1.502,-3.094 -3.535,-4.994c0.044,2.563 0.044,3.889 0.088,6.452c-0.486,0.708 -2.121,1.68 -3.182,1.592c-1.282,-1.68 -2.21,-3.05 -3.934,-4.464c0.309,2.254 0.486,3.359 0.796,5.657c-1.945,0.795 -2.917,1.193 -4.906,1.989Zm-64.086,1.016c1.989,0.354 2.917,0.619 4.994,1.194c0.752,-2.829 1.061,-4.288 1.768,-7.16c1.945,2.43 3.094,5.259 4.685,8.707c1.724,0.397 2.563,0.574 4.287,0.972c1.193,-6.718 2.254,-10.342 3.934,-16.53c-2.21,-0.265 -3.315,-0.398 -5.481,-0.619c-0.353,2.343 -0.53,5.171 -1.547,7.028c-2.121,-3.359 -3.403,-5.348 -4.95,-9.016c-1.591,-0.487 -2.386,-0.708 -4.022,-1.15c-1.281,6.497 -1.944,10.21 -3.668,16.574Zm-13.038,-5.082c3.668,1.679 5.259,2.165 9.149,4.198c0.928,-1.37 2.342,-2.519 3.624,-4.11c-2.21,-0.619 -3.845,-0.884 -5.481,-1.945c1.945,-4.198 3.05,-6.894 4.774,-11.226c-2.122,-1.016 -3.183,-1.547 -5.348,-2.563c-2.122,6.143 -3.404,9.635 -6.718,15.646Zm39.114,-2.962c-0.309,1.857 -0.265,4.464 -0.353,7.337c0.574,0.221 1.944,-0.044 2.872,-0.84c0.575,-0.442 0.796,-0.707 1.238,-1.281c0.619,-0.752 0.663,-2.21 0,-3.094c-0.663,-0.84 -1.149,-1.238 -1.945,-1.724c-0.53,-0.353 -1.06,-0.53 -1.812,-0.398Zm-5.303,-4.905c2.254,0.088 3.359,0.088 5.613,0.22c2.828,0.133 4.552,0.84 5.613,1.901c0.751,0.751 1.193,1.149 1.9,1.945c3.492,4.11 1.635,7.646 0.221,9.502c-0.663,0.884 -1.061,1.282 -1.9,1.989c-1.901,1.503 -3.227,1.768 -5.658,1.856c-2.519,0.089 -3.756,-0.265 -6.276,-0.398c0.177,-6.806 0.31,-10.209 0.487,-17.015Zm-159.066,-43.888c-0.265,1.856 -0.133,4.464 -0.221,7.337c0.619,0.221 1.989,-0.089 2.873,-0.884c0.574,-0.487 0.795,-0.752 1.237,-1.326c0.619,-0.752 0.619,-2.21 -0.088,-3.094c-0.619,-0.796 -1.149,-1.193 -1.945,-1.68c-0.53,-0.309 -1.061,-0.53 -1.856,-0.353Zm174.888,44.462c4.552,-0.751 6.851,-1.149 11.403,-1.9c0.928,1.768 1.326,2.872 1.768,4.861c-2.342,-0.044 -5.348,0.177 -7.911,0.663c0.132,0.752 0.176,1.105 0.309,1.812c2.343,-0.309 3.536,-0.442 5.922,-0.751c0.575,1.414 1.68,2.652 1.636,4.11c-2.74,0.354 -4.111,0.531 -6.851,0.928c-0.132,0.708 -0.088,1.415 0.221,2.21c3.138,-0.398 4.729,-0.442 7.735,-1.149c0.309,1.017 -0.398,2.785 -0.442,4.243c-4.597,0.663 -6.851,0.972 -11.447,1.635c-0.928,-6.673 -1.415,-9.988 -2.343,-16.662Zm-54.981,-14.276c4.11,2.122 6.187,3.138 10.298,5.216c-0.31,1.989 -0.619,3.093 -1.459,4.994c-1.856,-1.414 -4.419,-3.005 -6.762,-4.154c-0.354,0.662 -0.486,0.972 -0.84,1.635c2.078,1.149 3.138,1.723 5.216,2.872c-0.354,1.547 -0.221,3.183 -1.105,4.288c-2.431,-1.326 -3.625,-1.989 -6.055,-3.271c-0.531,0.486 -0.884,1.061 -1.149,1.901c2.784,1.546 4.11,2.43 6.894,3.624c-0.353,1.016 -1.9,2.033 -2.828,3.182c-4.066,-2.166 -6.144,-3.271 -10.21,-5.436c3.227,-5.967 4.818,-8.884 8,-14.851Zm-23.071,3.006c4.243,-5.171 6.409,-7.867 10.21,-13.215c1.679,1.37 2.519,2.077 4.198,3.447c-1.282,1.68 -1.9,2.519 -3.226,4.199c3.005,0.309 4.862,-0.265 7.823,-0.972c0.928,1.679 1.679,2.872 2.873,4.861c-2.873,0.575 -5.967,1.061 -9.68,1.503c0.663,3.315 0.884,5.26 1.724,8.663c-1.989,-0.531 -3.182,-0.84 -5.436,-1.282c-0.089,-2.652 -0.221,-4.464 -1.282,-7.558c-1.326,1.415 -1.989,2.122 -3.138,3.58c-1.724,-1.326 -2.519,-1.944 -4.066,-3.226Zm1.061,-4.022c-1.812,0.795 -2.652,1.193 -4.243,2.166c-1.37,-1.15 -3.138,-3.669 -3.845,-6.277c-1.105,-3.889 -0.354,-7.601 5.038,-9.325c2.564,-0.84 6.055,-0.044 7.425,0.354c0.398,1.9 0.398,2.961 0.663,4.994c-1.768,-0.265 -2.519,-0.53 -4.464,-0.575c-2.873,0.045 -4.464,1.945 -3.359,4.729c0.796,1.989 1.68,2.962 2.785,3.934Zm-18.784,-6.541c1.37,1.326 4.199,2.033 5.436,2.607c1.105,-3.889 6.188,-11.491 7.735,-14.761c-1.901,-1.017 -3.094,-1.724 -5.304,-2.564c-2.652,5.922 -4.729,9.281 -7.867,14.718Zm-28.331,-9.149c2.21,0.663 3.315,0.972 5.525,1.591c0.265,-1.768 0.265,-3.536 1.238,-5.613c1.635,0.619 3.094,0.751 4.95,0.265c3.005,-1.414 3.624,-4.11 2.828,-6.806c-0.618,-2.475 -2.651,-3.668 -4.022,-4.022c-2.519,-0.752 -3.756,-1.105 -6.276,-1.856c-0.839,2.872 -2.386,10.386 -4.243,16.441Zm22.983,-7.381c-0.354,1.016 -1.591,2.917 -1.591,3.845c1.017,0.575 2.033,0.796 3.005,0.265c1.326,-0.707 1.636,-1.723 0.796,-2.961c-0.486,-0.663 -1.238,-1.105 -2.21,-1.149Zm-10.254,9.856c1.945,0.795 2.917,1.193 4.906,2.077c0.972,-1.944 1.768,-3.58 2.475,-4.817c1.37,1.9 1.37,4.331 2.077,6.762c1.768,0.751 2.652,1.149 4.376,1.945c0.354,-1.68 -0.574,-4.464 -1.017,-7.293c1.017,-0.53 1.724,-0.486 2.741,-1.016c1.326,-0.708 2.696,-1.989 2.563,-5.26c-0.044,-1.193 -1.149,-3.491 -4.287,-4.773c-2.519,-1.061 -4.331,-1.282 -7.116,-2.475c-1.326,2.033 -3.757,9.281 -6.718,14.85Zm-32.485,-16.795c0.089,1.105 -0.265,3.315 0.089,4.155c1.193,0.132 2.21,-0.045 2.873,-0.973c0.928,-1.149 0.795,-2.21 -0.487,-3.005c-0.707,-0.442 -1.546,-0.486 -2.475,-0.177Zm27.657,3.345c-0.129,0.838 -0.782,2.421 -0.668,3.108c0.865,0.309 1.653,0.357 2.31,-0.217c0.895,-0.691 0.983,-1.504 0.17,-2.323c-0.449,-0.454 -1.066,-0.634 -1.812,-0.568Zm-33.358,9.693c2.121,0 3.182,0 5.392,0c0.133,-2.165 0.221,-3.933 0.398,-5.392c1.989,1.194 2.917,3.447 4.552,5.392c1.901,0.044 2.873,0.089 4.773,0.133c-0.309,-1.68 -2.298,-3.89 -3.801,-6.32c0.752,-0.884 1.415,-1.149 2.166,-2.033c0.928,-1.105 1.68,-2.829 0.309,-5.835c-0.486,-1.104 -2.43,-2.696 -5.789,-2.696c-2.741,0 -4.508,0.487 -7.514,0.487c-0.442,2.342 0.133,9.988 -0.486,16.264Zm-14.055,-16.574c4.641,-0.132 6.939,-0.221 11.58,-0.353c0.663,1.9 0.884,3.005 1.061,5.082c-2.299,-0.353 -5.304,-0.574 -7.912,-0.397c0,0.707 0,1.06 0.044,1.812c2.387,0 3.58,0 5.967,0.044c0.398,1.503 1.326,2.873 1.061,4.287c-2.784,0 -4.155,0 -6.895,0c-0.221,0.663 -0.309,1.37 -0.088,2.21c3.182,0.044 4.729,0.221 7.778,-0.044c0.177,1.016 -0.751,2.652 -0.972,4.11c-4.641,0.044 -6.939,0.044 -11.535,0.088c-0.045,-6.762 -0.045,-10.121 -0.089,-16.839Zm-16.618,-0.442c2.254,0.045 3.359,0.045 5.613,0.089c2.829,0.088 4.552,0.795 5.657,1.856c0.752,0.751 1.194,1.105 1.901,1.9c3.58,4.022 1.768,7.602 0.398,9.503c-0.619,0.884 -1.017,1.281 -1.857,1.989c-1.856,1.547 -3.182,1.812 -5.613,1.944c-2.519,0.133 -3.801,-0.132 -6.276,-0.265c0.045,-6.806 0.089,-10.209 0.177,-17.016" style="fill:#1a3882;"/><path d="M366.687,221.117l7.734,-0.089l-0.044,0.31l-0.265,0.176l-6.63,0.089c-0.265,1.414 -0.088,4.243 0,5.789l6.276,-0.044l0.221,0.398l-0.353,0.177l-6.011,0.044c-0.221,1.591 -0.089,4.818 0,6.055l6.629,-0.088l0.486,0.265l-0.176,0.354l-7.691,0.132l-0.176,-13.568Zm-14.011,0l7.69,-0.089l-0.044,0.31l-0.221,0.176l-6.674,0.089c-0.265,1.414 -0.088,4.243 0,5.789l6.276,-0.044l0.266,0.398l-0.398,0.177l-6.011,0.044c-0.221,1.591 -0.088,4.818 0,6.055l6.674,-0.088l0.442,0.265l-0.177,0.354l-7.646,0.132l-0.177,-13.568Zm-14.718,0c-0.574,0.044 -0.707,0.574 0,0.662c1.371,0 2.078,0 3.448,0c0.177,4.376 0.088,7.426 0.088,12.243c0.31,-0.044 0.442,-0.044 0.707,-0.088c-0.044,-4.464 0.31,-9.547 0,-12.066c1.547,0 2.299,-0.044 3.845,-0.089c0.222,-0.309 0.31,-0.486 0.531,-0.839c-3.182,0 -6.718,-0.133 -8.619,0.177Zm-9.9,0.132l0.663,0.31l-1.282,1.812c-0.574,0.795 -0.486,2.077 0,2.872l1.945,3.492c0.575,0.972 0.884,2.563 0.133,3.403l-1.149,1.282l-0.442,-0.309l0.884,-1.15c0.707,-0.928 0.397,-2.519 -0.221,-3.491l-1.591,-2.608c-0.663,-1.061 -0.884,-2.74 -0.177,-3.801l1.237,-1.812Zm-9.325,14.011l0.618,0.176l-1.547,-11.8l-0.309,-0.619l-0.442,0l1.68,12.243Zm-18.652,-8.133l7.337,-2.43l0.044,0.309l-0.176,0.265l-6.321,2.077c0.177,1.459 1.238,4.111 1.768,5.525l6.011,-1.945l0.309,0.266l-0.309,0.309l-5.701,1.856c0.265,1.591 1.414,4.641 1.856,5.79l6.32,-2.122l0.53,0.133l-0.088,0.398l-7.248,2.431l-4.332,-12.862Zm-6.143,11.006l2.298,-0.973l0.133,0.575l-2.431,0.84l0,-0.442Zm-17.679,-0.31l6.718,-3.801l0.133,0.309l-0.133,0.266l-5.79,3.27c0.398,1.37 1.945,3.757 2.741,5.083l5.524,-3.05l0.354,0.221l-0.221,0.31l-5.26,2.917c0.575,1.547 2.254,4.287 2.917,5.347l5.834,-3.314l0.486,0.044l0.045,0.398l-6.674,3.756l-6.674,-11.756Zm-12.331,8.53c-0.442,0.398 -0.221,0.884 0.354,0.53c1.149,-0.839 1.679,-1.237 2.784,-2.121c2.785,3.403 4.553,5.878 7.47,9.679c0.22,-0.177 0.309,-0.265 0.53,-0.442c-2.74,-3.58 -5.525,-7.778 -7.293,-9.635c1.194,-0.928 1.812,-1.414 3.006,-2.342c-0.044,-0.442 -0.044,-0.619 -0.089,-1.017c-2.563,1.901 -5.436,3.978 -6.762,5.348Zm-4.906,19.668c-0.309,-0.575 -0.397,-1.282 -0.618,-2.166c2.872,-2.254 4.331,-3.359 7.204,-5.613c0.839,0.31 1.414,0.575 2.165,1.149c0.133,-0.221 0.177,-0.309 0.354,-0.53c-4.773,-2.74 -7.16,-4.066 -11.978,-6.807c-0.486,0.487 -0.751,0.752 -1.281,1.282c1.458,4.994 1.812,8.133 3.712,13.082l0.442,-0.397Zm-0.751,-2.873c1.149,-0.486 4.464,-3.58 6.895,-5.215c-2.696,-1.724 -6.762,-4.022 -8.795,-5.216l-0.796,0.708c0.84,2.431 1.547,6.718 2.696,9.723Zm-20.729,13.789c0.266,-0.044 0.398,-0.044 0.619,-0.088c-0.751,-4.508 -1.105,-6.762 -1.856,-11.314c3.492,3.005 5.083,4.773 8.353,7.867c-0.132,-4.287 -0.132,-6.718 -0.619,-11.005c3.183,3.403 4.774,5.259 7.912,8.53c0.132,-0.177 0.221,-0.265 0.353,-0.442c-3.535,-3.801 -5.436,-5.702 -8.972,-9.414c0.619,4.906 0.442,6.541 0.796,11.005c-3.359,-3.094 -4.995,-4.597 -8.177,-7.646c-0.088,0.221 -0.132,0.309 -0.221,0.53c0.752,4.773 1.105,7.204 1.812,11.977Zm-27.048,-7.292l7.646,-1.149l0,0.353l-0.221,0.177l-6.586,1.017c-0.088,1.414 0.487,4.199 0.796,5.701l6.232,-0.884l0.265,0.354l-0.309,0.221l-5.967,0.884c0,1.591 0.575,4.773 0.796,6.011l6.585,-1.017l0.486,0.221l-0.088,0.354l-7.602,1.149l-2.033,-13.392Zm-15.823,0.133c1.547,0 2.343,-0.045 3.89,0.044c0.972,0.088 2.033,0.574 2.607,0.972c0.928,0.619 2.077,1.591 2.608,2.343c2.342,3.093 0.309,6.364 -0.442,7.115c-1.768,1.945 -4.95,2.652 -5.923,2.564c-1.193,-0.089 -1.812,-0.133 -3.005,-0.221c0.088,-5.127 0.133,-7.691 0.265,-12.817Zm0.531,0.53c0.309,0 0.618,0 0.883,0c0.752,0 1.459,0 2.431,0.088c0.884,0.044 1.857,0.531 2.343,0.884c0.928,0.575 1.989,1.459 2.475,2.166c1.856,2.829 0.088,5.701 -0.575,6.409c-1.679,1.812 -3.447,2.298 -5.303,2.43c-0.752,0.045 -1.282,-0.088 -1.901,-0.177c-0.177,0 -0.397,0 -0.619,-0.044c0.089,-4.596 0.177,-7.115 0.266,-11.756Zm-20.331,9.016c-0.221,-0.088 -0.354,-0.088 -0.575,-0.177c1.149,-4.905 1.591,-7.469 2.696,-12.463c1.503,0.972 6.497,11.447 8.133,13.436c0.839,-4.332 1.502,-6.453 2.519,-10.74c0.265,-0.044 0.398,-0.044 0.707,-0.044c-1.238,5.126 -1.856,7.601 -3.138,12.817c-1.547,-3.05 -4.243,-8.398 -7.735,-13.834c-1.149,4.022 -1.458,6.806 -2.607,11.005Zm-8.353,-15.955l0.486,-0.221l0.398,0.309c-1.238,3.183 -2.785,6.939 -4.597,10.961c1.503,0.663 3.271,1.415 4.641,2.033l-0.354,0.531c-1.414,-0.707 -3.58,-1.636 -5.392,-2.475c1.635,-3.315 3.448,-7.381 4.818,-11.138Zm-12.42,-6.851l6.851,3.58l-0.177,0.266l-0.309,0.044l-5.923,-3.094c-0.884,1.105 -2.077,3.668 -2.74,5.083l5.569,2.961l0,0.442l-0.398,-0.044l-5.304,-2.785c-0.972,1.282 -2.386,4.199 -2.917,5.348l5.923,3.05l0.265,0.486l-0.354,0.221l-6.762,-3.58l6.276,-11.978Zm-20.905,0.31c0.088,0.132 0.177,0.221 0.265,0.353c0.177,-0.088 0.265,-0.132 0.398,-0.221c0.751,-1.149 1.635,-1.856 2.475,-3.093c1.017,0.088 1.503,0.176 2.519,0.265c0.707,3.182 1.282,5.082 1.68,8.397c0.132,0.133 0.221,0.177 0.353,0.31c0.089,-0.133 0.133,-0.221 0.221,-0.354c-0.574,-3.271 -0.795,-5.083 -1.414,-8.221c3.226,0 5.127,0.177 8.618,-0.618c0.398,0.044 0.619,-0.487 -0.442,-0.398c-2.961,0.221 -5.745,0.707 -10.253,0.177c-0.531,-0.089 -0.619,-0.619 -0.398,-0.928c1.679,-2.122 2.563,-3.227 4.287,-5.348c-0.088,-0.221 -0.133,-0.31 -0.354,-0.486c-3.226,3.756 -4.95,5.922 -7.955,10.165Zm0.177,-15.116c-0.266,-0.132 -0.354,-0.265 -0.619,-0.309c-2.077,-0.133 -4.066,0.133 -5.083,0.619c-2.961,1.326 -2.961,4.331 -2.652,5.834c0.487,2.165 1.017,2.828 1.857,3.933c0.176,0.221 0.265,0.221 0.442,0.221c0.044,-0.088 0.088,-0.132 0.132,-0.176c-1.193,-1.459 -1.414,-2.475 -1.812,-4.067c-0.53,-2.696 0.707,-4.331 2.21,-5.082c1.326,-0.575 3.226,-0.575 5.127,-0.663c0.132,-0.133 0.221,-0.177 0.398,-0.31Zm-17.547,3.757l0.398,0.486l5.657,-10.43l0.089,-0.663l-0.354,-0.309l-5.79,10.916Zm-10.784,-18.43c2.387,0.795 3.58,0.884 5.879,2.387c2.475,1.635 1.591,7.513 -3.846,6.983c0.796,2.828 0.796,3.889 1.326,6.232c-0.397,0.353 0.045,0.265 -0.486,-0.045c-0.574,-2.342 -1.016,-4.375 -1.414,-6.32c-2.033,-0.574 -2.519,-0.884 -4.155,-1.635c-0.707,1.635 -1.105,2.431 -1.812,4.066c-0.088,0.133 -0.221,0.088 -0.398,0.177c-0.132,-0.177 -0.22,-0.265 -0.132,-0.486c2.077,-4.553 3.005,-6.762 5.038,-11.359Zm0.31,0.619c2.165,0.53 3.403,0.972 4.994,2.254c3.447,2.607 -0.044,6.718 -3.58,5.922c-1.945,-0.442 -2.829,-1.105 -4.243,-1.679c1.061,-2.608 1.724,-3.934 2.829,-6.497Zm-15.558,-4.376c-1.149,5.039 -1.723,7.514 -2.917,12.508c0.133,0.133 0.221,0.221 0.354,0.354c0.088,-0.177 0.177,-0.266 0.309,-0.487c0.442,-1.723 0.663,-2.563 1.105,-4.463c1.856,0.574 3.801,0.839 5.039,0.707c1.9,-0.265 4.198,-2.21 2.607,-5.702c-0.353,-0.972 -1.988,-1.812 -3.314,-2.254c-1.15,-0.353 -2.034,-0.486 -3.183,-0.663Zm0.575,0.707c-0.619,2.652 -0.884,3.978 -1.459,6.586c1.282,0.486 2.343,0.839 4.243,0.751c1.945,-0.088 4.287,-2.386 2.343,-5.215c-0.575,-0.973 -2.519,-1.901 -5.127,-2.122Zm-28.463,-2.43c2.166,-0.354 3.447,-0.442 5.436,0.044c4.199,1.06 2.608,6.231 -0.928,6.895c-1.945,0.353 -3.005,0.088 -4.552,0.132c-0.089,-2.784 0,-4.243 0.044,-7.071Zm-0.575,-0.442c2.52,-0.221 3.669,-0.619 6.365,-0.133c2.917,0.486 4.464,6.232 -0.796,7.911c1.238,2.343 2.122,3.359 3.58,5.216c-0.132,0.088 -0.221,0.176 -0.309,0.265c-1.724,-1.901 -2.564,-3.138 -3.934,-5.26c-1.989,0.177 -2.563,0.089 -4.331,0.089c-0.044,1.768 -0.044,2.607 -0.044,4.419c0,0.133 -0.177,0.177 -0.31,0.31c-0.176,-0.133 -0.309,-0.133 -0.309,-0.354c0.044,-5.038 0.044,-7.469 0.088,-12.463Zm-14.673,0l7.734,-0.089l-0.044,0.31l-0.265,0.176l-6.674,0.089c-0.265,1.414 -0.088,4.243 0,5.789l6.32,-0.044l0.222,0.398l-0.354,0.177l-6.011,0.044c-0.265,1.591 -0.088,4.818 0,6.055l6.63,-0.088l0.442,0.265l-0.177,0.354l-7.646,0.132l-0.177,-13.568Zm-16.353,-0.089c1.503,0 2.298,-0.088 3.845,0c1.017,0.044 2.077,0.531 2.652,0.884c0.972,0.619 2.077,1.547 2.652,2.298c2.386,3.05 0.442,6.365 -0.31,7.116c-1.767,2.033 -4.905,2.74 -5.878,2.696c-1.193,-0.044 -1.812,-0.088 -3.005,-0.177c0,-5.127 0,-7.69 0.044,-12.817Zm0.53,0.531c0.31,0 0.575,0 0.884,0c0.752,-0.045 1.415,-0.045 2.431,0c0.884,0.044 1.856,0.486 2.387,0.839c0.884,0.575 1.989,1.459 2.475,2.122c1.9,2.784 0.221,5.745 -0.442,6.453c-1.635,1.812 -3.403,2.386 -5.26,2.519c-0.795,0.044 -1.326,-0.089 -1.9,-0.133c-0.221,0 -0.398,0 -0.619,-0.044c0,-4.597 0,-7.16 0.044,-11.756" style="fill:#f7c200;"/><path d="M394.685,8.714l2.724,0c0.43,0 0.765,0 1.004,0.048c0.191,0.048 0.382,0.096 0.525,0.191c0.335,0.191 0.526,0.383 0.669,0.669c0.192,0.287 0.239,0.669 0.239,1.052c0,0.382 -0.047,0.669 -0.239,0.956c-0.143,0.286 -0.382,0.477 -0.716,0.621c0.286,0.095 0.477,0.239 0.573,0.43c0.143,0.143 0.191,0.478 0.239,0.908l0.096,1.147c0,0.239 0.047,0.43 0.095,0.574c0.048,0.095 0.096,0.191 0.191,0.239l0,0.191l-1.099,0c-0.095,-0.144 -0.143,-0.43 -0.191,-0.908l0,-0.048l-0.048,-0.908c-0.048,-0.478 -0.143,-0.765 -0.287,-0.908c-0.191,-0.144 -0.621,-0.239 -1.29,-0.239l-1.529,0l0,3.011l-0.956,0l0,-7.026Zm0.908,0.813l0,2.389l1.673,0c0.573,0 1.003,-0.095 1.242,-0.286c0.239,-0.192 0.383,-0.478 0.383,-0.956c0,-0.43 -0.144,-0.717 -0.383,-0.861c-0.191,-0.191 -0.621,-0.286 -1.242,-0.286l-1.673,0Zm1.577,-1.864c2.676,0 4.827,2.15 4.827,4.779c0,2.676 -2.151,4.827 -4.827,4.827c-2.629,0 -4.827,-2.151 -4.827,-4.827c0,-2.629 2.198,-4.779 4.827,-4.779Zm0,-0.669c3.011,0 5.448,2.437 5.448,5.448c0,3.011 -2.437,5.448 -5.448,5.448c-3.011,0 -5.448,-2.437 -5.448,-5.448c0,-3.011 2.437,-5.448 5.448,-5.448" style="fill:#173882;"/></svg>